<mxfile host="app.diagrams.net" modified="2022-04-28T14:24:50.244Z" agent="5.0 (Windows NT 10.0; Win64; x64) AppleWebKit/537.36 (KHTML, like Gecko) Chrome/100.0.4896.127 Safari/537.36 Edg/100.0.1185.50" etag="oKYZeI9oJm02qn_mjNF2" version="17.4.6" type="github">
  <diagram id="_E5YcYkKUzbQyaMfJqRt" name="Page-1">
    <mxGraphModel dx="1038" dy="579" grid="1" gridSize="10" guides="1" tooltips="1" connect="1" arrows="1" fold="1" page="1" pageScale="1" pageWidth="850" pageHeight="1100" math="0" shadow="0">
      <root>
        <mxCell id="0" />
        <mxCell id="1" parent="0" />
        <mxCell id="qy_V7vzT1SQRBg4FcnOz-5" value="" style="edgeStyle=orthogonalEdgeStyle;rounded=0;orthogonalLoop=1;jettySize=auto;html=1;" edge="1" parent="1" source="qy_V7vzT1SQRBg4FcnOz-1" target="qy_V7vzT1SQRBg4FcnOz-4">
          <mxGeometry relative="1" as="geometry" />
        </mxCell>
        <mxCell id="qy_V7vzT1SQRBg4FcnOz-1" value="start" style="rounded=1;whiteSpace=wrap;html=1;" vertex="1" parent="1">
          <mxGeometry x="210" y="40" width="90" height="20" as="geometry" />
        </mxCell>
        <mxCell id="qy_V7vzT1SQRBg4FcnOz-7" value="" style="edgeStyle=orthogonalEdgeStyle;rounded=0;orthogonalLoop=1;jettySize=auto;html=1;" edge="1" parent="1" source="qy_V7vzT1SQRBg4FcnOz-4" target="qy_V7vzT1SQRBg4FcnOz-6">
          <mxGeometry relative="1" as="geometry" />
        </mxCell>
        <mxCell id="qy_V7vzT1SQRBg4FcnOz-4" value="clone the truck property" style="rounded=0;whiteSpace=wrap;html=1;" vertex="1" parent="1">
          <mxGeometry x="195" y="100" width="120" height="60" as="geometry" />
        </mxCell>
        <mxCell id="qy_V7vzT1SQRBg4FcnOz-9" value="yes" style="edgeStyle=orthogonalEdgeStyle;rounded=0;orthogonalLoop=1;jettySize=auto;html=1;" edge="1" parent="1" source="qy_V7vzT1SQRBg4FcnOz-6" target="qy_V7vzT1SQRBg4FcnOz-8">
          <mxGeometry relative="1" as="geometry" />
        </mxCell>
        <mxCell id="qy_V7vzT1SQRBg4FcnOz-14" value="no" style="edgeStyle=orthogonalEdgeStyle;rounded=0;orthogonalLoop=1;jettySize=auto;html=1;" edge="1" parent="1" source="qy_V7vzT1SQRBg4FcnOz-6" target="qy_V7vzT1SQRBg4FcnOz-13">
          <mxGeometry relative="1" as="geometry" />
        </mxCell>
        <mxCell id="qy_V7vzT1SQRBg4FcnOz-6" value="IF persona type 1" style="rhombus;whiteSpace=wrap;html=1;rounded=0;" vertex="1" parent="1">
          <mxGeometry x="215" y="210" width="80" height="80" as="geometry" />
        </mxCell>
        <mxCell id="qy_V7vzT1SQRBg4FcnOz-8" value="set the qlen,patience and margin" style="whiteSpace=wrap;html=1;rounded=0;" vertex="1" parent="1">
          <mxGeometry x="355" y="220" width="120" height="60" as="geometry" />
        </mxCell>
        <mxCell id="qy_V7vzT1SQRBg4FcnOz-16" value="yes" style="edgeStyle=orthogonalEdgeStyle;rounded=0;orthogonalLoop=1;jettySize=auto;html=1;" edge="1" parent="1" source="qy_V7vzT1SQRBg4FcnOz-13" target="qy_V7vzT1SQRBg4FcnOz-15">
          <mxGeometry relative="1" as="geometry" />
        </mxCell>
        <mxCell id="qy_V7vzT1SQRBg4FcnOz-18" value="" style="edgeStyle=orthogonalEdgeStyle;rounded=0;orthogonalLoop=1;jettySize=auto;html=1;" edge="1" parent="1" source="qy_V7vzT1SQRBg4FcnOz-13" target="qy_V7vzT1SQRBg4FcnOz-17">
          <mxGeometry relative="1" as="geometry" />
        </mxCell>
        <mxCell id="qy_V7vzT1SQRBg4FcnOz-13" value="ELSE IF persona type 2" style="rhombus;whiteSpace=wrap;html=1;rounded=0;" vertex="1" parent="1">
          <mxGeometry x="215" y="350" width="80" height="80" as="geometry" />
        </mxCell>
        <mxCell id="qy_V7vzT1SQRBg4FcnOz-15" value="set the qlen,patience and margin" style="whiteSpace=wrap;html=1;rounded=0;" vertex="1" parent="1">
          <mxGeometry x="350" y="360" width="120" height="60" as="geometry" />
        </mxCell>
        <mxCell id="qy_V7vzT1SQRBg4FcnOz-20" value="" style="edgeStyle=orthogonalEdgeStyle;rounded=0;orthogonalLoop=1;jettySize=auto;html=1;" edge="1" parent="1" source="qy_V7vzT1SQRBg4FcnOz-17" target="qy_V7vzT1SQRBg4FcnOz-19">
          <mxGeometry relative="1" as="geometry" />
        </mxCell>
        <mxCell id="qy_V7vzT1SQRBg4FcnOz-17" value="return property object" style="whiteSpace=wrap;html=1;rounded=0;" vertex="1" parent="1">
          <mxGeometry x="195" y="480" width="120" height="60" as="geometry" />
        </mxCell>
        <mxCell id="qy_V7vzT1SQRBg4FcnOz-19" value="end" style="ellipse;whiteSpace=wrap;html=1;rounded=0;" vertex="1" parent="1">
          <mxGeometry x="365" y="480" width="120" height="60" as="geometry" />
        </mxCell>
      </root>
    </mxGraphModel>
  </diagram>
</mxfile>
